<mxfile host="app.diagrams.net" modified="2024-04-10T15:32:35.874Z" agent="Mozilla/5.0 (X11; Linux x86_64) AppleWebKit/537.36 (KHTML, like Gecko) Chrome/120.0.0.0 Safari/537.36" etag="VuE3DhKhPmfx1vKZkQ_q" version="24.2.3" type="device">
  <diagram name="Page-1" id="U9HDjQ6jtMYvhgH7WQ1c">
    <mxGraphModel dx="1195" dy="633" grid="1" gridSize="10" guides="1" tooltips="1" connect="1" arrows="1" fold="1" page="1" pageScale="1" pageWidth="827" pageHeight="583" math="0" shadow="0">
      <root>
        <mxCell id="0" />
        <mxCell id="1" parent="0" />
        <mxCell id="4rFxl7BPNz9hcJGua4LR-1" value="" style="endArrow=none;html=1;rounded=0;" edge="1" parent="1" source="4rFxl7BPNz9hcJGua4LR-30">
          <mxGeometry width="50" height="50" relative="1" as="geometry">
            <mxPoint x="99" y="412" as="sourcePoint" />
            <mxPoint x="729" y="412" as="targetPoint" />
          </mxGeometry>
        </mxCell>
        <mxCell id="4rFxl7BPNz9hcJGua4LR-4" value="main" style="text;html=1;align=left;verticalAlign=middle;whiteSpace=wrap;rounded=0;" vertex="1" parent="1">
          <mxGeometry x="99" y="382" width="40" height="30" as="geometry" />
        </mxCell>
        <mxCell id="4rFxl7BPNz9hcJGua4LR-7" value="" style="endArrow=none;html=1;rounded=0;" edge="1" parent="1" source="4rFxl7BPNz9hcJGua4LR-32">
          <mxGeometry width="50" height="50" relative="1" as="geometry">
            <mxPoint x="169" y="412" as="sourcePoint" />
            <mxPoint x="389" y="382" as="targetPoint" />
            <Array as="points" />
          </mxGeometry>
        </mxCell>
        <mxCell id="4rFxl7BPNz9hcJGua4LR-8" value="1-formalize-documentation-for-d1" style="text;html=1;align=left;verticalAlign=middle;whiteSpace=wrap;rounded=0;" vertex="1" parent="1">
          <mxGeometry x="189" y="352" width="180" height="30" as="geometry" />
        </mxCell>
        <mxCell id="4rFxl7BPNz9hcJGua4LR-9" value="" style="endArrow=none;html=1;rounded=0;" edge="1" parent="1">
          <mxGeometry width="50" height="50" relative="1" as="geometry">
            <mxPoint x="389" y="382" as="sourcePoint" />
            <mxPoint x="529" y="352" as="targetPoint" />
            <Array as="points">
              <mxPoint x="499" y="352" />
            </Array>
          </mxGeometry>
        </mxCell>
        <mxCell id="4rFxl7BPNz9hcJGua4LR-10" value="3-domain-analysis" style="text;html=1;align=left;verticalAlign=middle;whiteSpace=wrap;rounded=0;" vertex="1" parent="1">
          <mxGeometry x="539" y="334" width="110" height="30" as="geometry" />
        </mxCell>
        <mxCell id="4rFxl7BPNz9hcJGua4LR-12" value="" style="endArrow=none;html=1;rounded=0;" edge="1" parent="1">
          <mxGeometry width="50" height="50" relative="1" as="geometry">
            <mxPoint x="389" y="382" as="sourcePoint" />
            <mxPoint x="529" y="328" as="targetPoint" />
            <Array as="points">
              <mxPoint x="499" y="328" />
            </Array>
          </mxGeometry>
        </mxCell>
        <mxCell id="4rFxl7BPNz9hcJGua4LR-13" value="4-projects-objectives" style="text;html=1;align=left;verticalAlign=middle;whiteSpace=wrap;rounded=0;" vertex="1" parent="1">
          <mxGeometry x="539" y="310" width="150" height="30" as="geometry" />
        </mxCell>
        <mxCell id="4rFxl7BPNz9hcJGua4LR-15" value="" style="endArrow=none;html=1;rounded=0;" edge="1" parent="1">
          <mxGeometry width="50" height="50" relative="1" as="geometry">
            <mxPoint x="389" y="382" as="sourcePoint" />
            <mxPoint x="529" y="307" as="targetPoint" />
            <Array as="points">
              <mxPoint x="499" y="307" />
            </Array>
          </mxGeometry>
        </mxCell>
        <mxCell id="4rFxl7BPNz9hcJGua4LR-16" value="5-actors" style="text;html=1;align=left;verticalAlign=middle;whiteSpace=wrap;rounded=0;" vertex="1" parent="1">
          <mxGeometry x="539" y="289" width="110" height="30" as="geometry" />
        </mxCell>
        <mxCell id="4rFxl7BPNz9hcJGua4LR-17" value="" style="endArrow=none;html=1;rounded=0;" edge="1" parent="1">
          <mxGeometry width="50" height="50" relative="1" as="geometry">
            <mxPoint x="389" y="382" as="sourcePoint" />
            <mxPoint x="529" y="286" as="targetPoint" />
            <Array as="points">
              <mxPoint x="489" y="286" />
            </Array>
          </mxGeometry>
        </mxCell>
        <mxCell id="4rFxl7BPNz9hcJGua4LR-18" value="6-functional-requirements" style="text;html=1;align=left;verticalAlign=middle;whiteSpace=wrap;rounded=0;" vertex="1" parent="1">
          <mxGeometry x="539" y="268" width="170" height="30" as="geometry" />
        </mxCell>
        <mxCell id="4rFxl7BPNz9hcJGua4LR-19" value="" style="endArrow=none;html=1;rounded=0;" edge="1" parent="1">
          <mxGeometry width="50" height="50" relative="1" as="geometry">
            <mxPoint x="389" y="382" as="sourcePoint" />
            <mxPoint x="529" y="265" as="targetPoint" />
            <Array as="points">
              <mxPoint x="479" y="265" />
            </Array>
          </mxGeometry>
        </mxCell>
        <mxCell id="4rFxl7BPNz9hcJGua4LR-20" value="7-non-functional-requirements" style="text;html=1;align=left;verticalAlign=middle;whiteSpace=wrap;rounded=0;" vertex="1" parent="1">
          <mxGeometry x="539" y="247" width="170" height="30" as="geometry" />
        </mxCell>
        <mxCell id="4rFxl7BPNz9hcJGua4LR-21" value="" style="endArrow=none;html=1;rounded=0;" edge="1" parent="1">
          <mxGeometry width="50" height="50" relative="1" as="geometry">
            <mxPoint x="389" y="382" as="sourcePoint" />
            <mxPoint x="529" y="244" as="targetPoint" />
            <Array as="points">
              <mxPoint x="469" y="244" />
            </Array>
          </mxGeometry>
        </mxCell>
        <mxCell id="4rFxl7BPNz9hcJGua4LR-22" value="2-usecase-table-and-diagram" style="text;html=1;align=left;verticalAlign=middle;whiteSpace=wrap;rounded=0;" vertex="1" parent="1">
          <mxGeometry x="539" y="226" width="170" height="30" as="geometry" />
        </mxCell>
        <mxCell id="4rFxl7BPNz9hcJGua4LR-23" value="" style="endArrow=none;html=1;rounded=0;" edge="1" parent="1">
          <mxGeometry width="50" height="50" relative="1" as="geometry">
            <mxPoint x="389" y="382" as="sourcePoint" />
            <mxPoint x="529" y="223" as="targetPoint" />
            <Array as="points">
              <mxPoint x="459" y="223" />
            </Array>
          </mxGeometry>
        </mxCell>
        <mxCell id="4rFxl7BPNz9hcJGua4LR-24" value="8-context-diagram" style="text;html=1;align=left;verticalAlign=middle;whiteSpace=wrap;rounded=0;" vertex="1" parent="1">
          <mxGeometry x="539" y="205" width="110" height="30" as="geometry" />
        </mxCell>
        <mxCell id="4rFxl7BPNz9hcJGua4LR-25" value="" style="endArrow=none;html=1;rounded=0;" edge="1" parent="1">
          <mxGeometry width="50" height="50" relative="1" as="geometry">
            <mxPoint x="389" y="382" as="sourcePoint" />
            <mxPoint x="529" y="202" as="targetPoint" />
            <Array as="points">
              <mxPoint x="449" y="202" />
            </Array>
          </mxGeometry>
        </mxCell>
        <mxCell id="4rFxl7BPNz9hcJGua4LR-26" value="9-component-diagram" style="text;html=1;align=left;verticalAlign=middle;whiteSpace=wrap;rounded=0;" vertex="1" parent="1">
          <mxGeometry x="539" y="184" width="160" height="30" as="geometry" />
        </mxCell>
        <mxCell id="4rFxl7BPNz9hcJGua4LR-27" value="10-class-diagram" style="text;html=1;align=left;verticalAlign=middle;whiteSpace=wrap;rounded=0;" vertex="1" parent="1">
          <mxGeometry x="539" y="162" width="160" height="30" as="geometry" />
        </mxCell>
        <mxCell id="4rFxl7BPNz9hcJGua4LR-28" value="" style="endArrow=none;html=1;rounded=0;" edge="1" parent="1">
          <mxGeometry width="50" height="50" relative="1" as="geometry">
            <mxPoint x="389" y="382" as="sourcePoint" />
            <mxPoint x="529" y="182" as="targetPoint" />
            <Array as="points">
              <mxPoint x="439" y="182" />
            </Array>
          </mxGeometry>
        </mxCell>
        <mxCell id="4rFxl7BPNz9hcJGua4LR-33" value="" style="endArrow=none;html=1;rounded=0;" edge="1" parent="1" target="4rFxl7BPNz9hcJGua4LR-32">
          <mxGeometry width="50" height="50" relative="1" as="geometry">
            <mxPoint x="169" y="412" as="sourcePoint" />
            <mxPoint x="389" y="382" as="targetPoint" />
            <Array as="points">
              <mxPoint x="189" y="382" />
            </Array>
          </mxGeometry>
        </mxCell>
        <mxCell id="4rFxl7BPNz9hcJGua4LR-32" value="" style="ellipse;whiteSpace=wrap;html=1;aspect=fixed;" vertex="1" parent="1">
          <mxGeometry x="379" y="372" width="20" height="20" as="geometry" />
        </mxCell>
        <mxCell id="4rFxl7BPNz9hcJGua4LR-34" value="" style="endArrow=none;html=1;rounded=0;" edge="1" parent="1" target="4rFxl7BPNz9hcJGua4LR-30">
          <mxGeometry width="50" height="50" relative="1" as="geometry">
            <mxPoint x="99" y="412" as="sourcePoint" />
            <mxPoint x="729" y="412" as="targetPoint" />
          </mxGeometry>
        </mxCell>
        <mxCell id="4rFxl7BPNz9hcJGua4LR-30" value="" style="ellipse;whiteSpace=wrap;html=1;aspect=fixed;" vertex="1" parent="1">
          <mxGeometry x="159" y="402" width="20" height="20" as="geometry" />
        </mxCell>
      </root>
    </mxGraphModel>
  </diagram>
</mxfile>
